<svg width="16" height="16" viewBox="0 0 16 16" fill="none" xmlns="http://www.w3.org/2000/svg">
<g clip-path="url(#clip0_1667_3567)">
<path d="M16 7.33333H8.66663V0H14C14.5304 0 15.0391 0.210714 15.4142 0.585786C15.7893 0.960859 16 1.46957 16 2V7.33333ZM9.99996 6H14.6666V2C14.6666 1.82319 14.5964 1.65362 14.4714 1.52859C14.3463 1.40357 14.1768 1.33333 14 1.33333H9.99996V6Z" fill="#9FA1A6"/>
<path d="M14 15.9998H8.66663V8.6665H16V13.9998C16 14.5303 15.7893 15.039 15.4142 15.4141C15.0391 15.7891 14.5304 15.9998 14 15.9998ZM9.99996 14.6665H14C14.1768 14.6665 14.3463 14.5963 14.4714 14.4712C14.5964 14.3462 14.6666 14.1766 14.6666 13.9998V9.99984H9.99996V14.6665Z" fill="#9FA1A6"/>
<path d="M0.75 4C0.75 2.20507 2.20507 0.75 4 0.75H6.75V15.25H4C2.20507 15.25 0.75 13.7949 0.75 12V4Z" stroke="#9FA1A6" stroke-width="1.5"/>
</g>
<defs>
<clipPath id="clip0_1667_3567">
<rect width="16" height="16" fill="white"/>
</clipPath>
</defs>
</svg>
