<svg width="16" height="16" viewBox="0 0 16 16" fill="none" xmlns="http://www.w3.org/2000/svg">
<path d="M15.8333 2V7.33333H8.49992V0H13.8333C14.3637 0 14.8724 0.210714 15.2475 0.585786C15.6225 0.960859 15.8333 1.46957 15.8333 2V2Z" fill="white"/>
<path d="M0 2.04545V7.5H7V0H1.90909C1.40277 0 0.917184 0.215503 0.55916 0.5991C0.201136 0.982697 0 1.50297 0 2.04545H0Z" fill="white"/>
<path d="M0 13.1364C0 13.8958 0.201136 14.6242 0.55916 15.1613C0.917184 15.6983 1.40277 16 1.90909 16H7V5.5H0C0 5.5 0 10.1542 0 13.1364Z" fill="white"/>
<path d="M8.5 8.5V16H13.9545C14.497 16 15.0173 15.7845 15.4009 15.4009C15.7845 15.0173 16 14.497 16 13.9545V8.5H8.5Z" fill="white"/>
</svg>
