<svg width="16" height="16" viewBox="0 0 16 16" fill="none" xmlns="http://www.w3.org/2000/svg">
<path d="M14.6667 2.00014V14.0001V15.9744C15.1972 15.9744 15.6249 16.3752 16 16.0001C16.3751 15.625 16.0001 14.5306 16.0001 14.0001V2.00014C16.0001 1.4697 16.3751 0.375263 16 0.000190064C15.625 -0.374883 15.1972 0.000209436 14.6667 0.000209436V2.00014Z" fill="#828693"/>
<path d="M0.584758 6.58614L3.64209 3.52881L4.58475 4.47148L1.74209 7.31414L12.6667 7.33348V8.66681L1.70476 8.64748L4.58609 11.5288L3.64342 12.4715L0.58609 9.41414C0.210972 9.03927 0.000102043 8.53075 -0.00014782 8.00042C-0.000397682 7.47009 0.209992 6.96137 0.584758 6.58614Z" fill="#828693"/>
</svg>
