<svg width="16" height="16" viewBox="0 0 16 16" fill="none" xmlns="http://www.w3.org/2000/svg">
<path d="M14.6667 13.5589V14.0001L14.6668 16.0001C15.1972 16.0001 15.625 16.3752 16 16.0001C16.3751 15.625 16 14.5305 16 14.0001V2.0001C16 1.46967 16.3751 0.375179 16 0.000106677C15.6249 -0.374966 15.1971 -0.116032 14.6667 -0.116032V7.47591e-05V2.0001V2.25012V13.5589Z" fill="#828693"/>
<path d="M0.000141144 8.66681V7.33348L10.9628 7.35414L8.08081 4.47148L9.02482 3.52881L12.0822 6.58614C12.4571 6.9612 12.6677 7.46982 12.6677 8.00014C12.6677 8.53047 12.4571 9.03909 12.0822 9.41414L9.02482 12.4715L8.08215 11.5288L10.9242 8.68681L0.000141144 8.66681Z" fill="#828693"/>
</svg>
