<svg width="16" height="16" viewBox="0 0 16 16" fill="none" xmlns="http://www.w3.org/2000/svg">
<path d="M2 14.6507C1.82319 14.6507 1.65362 14.5804 1.5286 14.4554C1.40357 14.3304 1.33333 14.1608 1.33333 13.984V0H0V13.984C0 14.5144 0.210714 15.0231 0.585786 15.3982C0.960859 15.7733 1.46957 15.984 2 15.984H16V14.6507H2Z" fill="white"/>
<path d="M4.66671 8H3.33337V12.6667H4.66671V8Z" fill="white"/>
<path d="M7.99996 6.6665H6.66663V12.6665H7.99996V6.6665Z" fill="white"/>
<path d="M11.3333 8.6665H10V12.6665H11.3333V8.6665Z" fill="white"/>
<path d="M14.6667 6H13.3334V12.6667H14.6667V6Z" fill="white"/>
<path d="M7.33335 2.94265L10.6667 6.27598L15.8047 1.13798L14.862 0.195312L10.6667 4.39065L7.33335 1.05731L3.52869 4.86198L4.47135 5.80465L7.33335 2.94265Z" fill="white"/>
</svg>
