<svg width="16" height="15" viewBox="0 0 16 15" fill="none" xmlns="http://www.w3.org/2000/svg">
<path d="M15.8806 6.592C15.2365 5.19514 14.2931 3.95702 13.1172 2.96533L15.1386 0.944L14.1952 0L11.9999 2.19333C10.7848 1.49048 9.40359 1.12606 7.99991 1.138C2.99991 1.138 0.704581 5.312 0.119247 6.592C0.040673 6.76354 0 6.94999 0 7.13867C0 7.32734 0.040673 7.5138 0.119247 7.68534C0.763338 9.08219 1.70673 10.3203 2.88258 11.312L0.861914 13.3333L1.80458 14.276L3.99991 12.0827C5.215 12.7855 6.59624 13.1499 7.99991 13.138C12.9999 13.138 15.2952 8.964 15.8806 7.684C15.959 7.51266 15.9996 7.32644 15.9996 7.138C15.9996 6.94957 15.959 6.76334 15.8806 6.592ZM1.33325 7.14534C1.83325 6.04867 3.79525 2.47133 7.99991 2.47133C9.04631 2.46522 10.079 2.70933 11.0119 3.18333L9.83525 4.36C9.1952 3.93507 8.42785 3.74466 7.6634 3.8211C6.89895 3.89753 6.18449 4.23609 5.64125 4.77934C5.098 5.32258 4.75944 6.03704 4.68301 6.80149C4.60658 7.56594 4.79698 8.33329 5.22191 8.97334L3.83591 10.3593C2.7695 9.49093 1.91383 8.39205 1.33325 7.14534ZM9.99991 7.138C9.99991 7.66844 9.7892 8.17714 9.41413 8.55222C9.03905 8.92729 8.53034 9.138 7.99991 9.138C7.70292 9.13685 7.41004 9.06848 7.14325 8.938L9.79991 6.28134C9.93039 6.54813 9.99876 6.84101 9.99991 7.138ZM5.99991 7.138C5.99991 6.60757 6.21063 6.09886 6.5857 5.72379C6.96077 5.34871 7.46948 5.138 7.99991 5.138C8.2969 5.13915 8.58978 5.20753 8.85658 5.338L6.19991 7.99467C6.06944 7.72787 6.00106 7.43499 5.99991 7.138ZM7.99991 11.8047C6.95352 11.8108 5.92082 11.5667 4.98791 11.0927L6.16458 9.916C6.80462 10.3409 7.57197 10.5313 8.33642 10.4549C9.10087 10.3785 9.81533 10.0399 10.3586 9.49667C10.9018 8.95343 11.2404 8.23896 11.3168 7.47451C11.3932 6.71006 11.2028 5.94271 10.7779 5.30267L12.1632 3.91733C13.2318 4.78654 14.0879 5.88804 14.6666 7.138C14.1572 8.24267 12.1946 11.8047 7.99991 11.8047Z" fill="black"/>
</svg>
