<svg width="15" height="16" viewBox="0 0 15 16" fill="none" xmlns="http://www.w3.org/2000/svg">
<path d="M3.75558 9.23656C3.11118 8.65926 2.61966 7.93989 2.32262 7.13935C2.02557 6.3388 1.93174 5.48062 2.04906 4.63745C2.16507 3.7825 2.4931 2.96758 3.00502 2.26253C3.51695 1.55749 4.19751 0.983347 4.98837 0.589323C5.77924 0.195299 6.65682 -0.00685857 7.5459 0.000177576C8.43498 0.00721372 9.30904 0.223234 10.0932 0.629722C10.8773 1.03621 11.5481 1.62104 12.0481 2.3341C12.5481 3.04715 12.8624 3.86716 12.964 4.72383C13.0656 5.58051 12.9515 6.44831 12.6315 7.25285C12.3115 8.05739 11.7951 8.77467 11.1266 9.34323C10.551 9.84708 10.1634 10.5216 10.0244 11.2614H8.11321V6.41168C8.46936 6.28955 8.77792 6.06369 8.99666 5.76498C9.2154 5.46627 9.33364 5.10931 9.3352 4.74294H8.11321C8.11321 4.9001 8.04884 5.05083 7.93425 5.16196C7.81967 5.27309 7.66426 5.33553 7.50221 5.33553C7.34016 5.33553 7.18476 5.27309 7.07017 5.16196C6.95559 5.05083 6.89121 4.9001 6.89121 4.74294H5.66922C5.67079 5.10931 5.78903 5.46627 6.00777 5.76498C6.2265 6.06369 6.53506 6.28955 6.89121 6.41168V11.2614H4.98185C4.79892 10.4797 4.37048 9.77223 3.75558 9.23656ZM5.05822 12.4466V14.2244H9.9462V12.4466H5.05822Z" fill="#C4AB61"/>
<path d="M5.05822 14.2244V12.4466H9.9462V14.2244H5.05822Z" fill="#C4AB61"/>
<path d="M6.12423 16C5.20773 16 5.13643 15.1111 5.13643 15.1111H7.49897V16C7.49897 16 7.04072 16 6.12423 16Z" fill="#C4AB61"/>
<path d="M8.87372 16C9.79021 16 9.86151 15.1111 9.86151 15.1111H7.49897V16C7.49897 16 7.95722 16 8.87372 16Z" fill="#C4AB61"/>
</svg>
