<svg width="704" height="652" viewBox="0 0 704 652" fill="none" xmlns="http://www.w3.org/2000/svg">
<path d="M154.18 629.31C151.882 635.814 147.616 641.44 141.975 645.409C136.334 649.378 129.597 651.493 122.7 651.46H0L154.43 224.74C156.731 218.237 160.999 212.611 166.642 208.642C172.284 204.673 179.022 202.558 185.92 202.59H308.61L154.18 629.31Z" fill="#C4AB61"/>
<path d="M351.25 528C348.954 534.505 344.689 540.133 339.048 544.103C333.406 548.073 326.668 550.186 319.77 550.15H197.12L351.5 123.45C353.8 116.946 358.068 111.319 363.711 107.35C369.353 103.381 376.091 101.267 382.99 101.3H505.68L351.25 528Z" fill="#C4AB61"/>
<path d="M548.76 426.72C546.459 433.224 542.191 438.85 536.548 442.819C530.906 446.787 524.169 448.902 517.27 448.87H394.58L549.01 22.1504C551.308 15.6471 555.574 10.0205 561.215 6.05142C566.856 2.08229 573.593 -0.0325455 580.49 0.000378666H703.19L548.76 426.72Z" fill="#C4AB61"/>
</svg>
