<svg width="32" height="32" viewBox="0 0 32 32" fill="none" xmlns="http://www.w3.org/2000/svg">
<g clip-path="url(#clip0_88_3442)">
<path d="M29.3334 27.1175V28L29.3335 32C30.3944 32 31.25 32.7501 32.0001 32C32.7502 31.2498 32.0001 29.0608 32.0001 28V3.99996C32.0001 2.93909 32.7501 0.750115 32 -3.08454e-05C31.2498 -0.750176 30.3943 -0.232309 29.3334 -0.232309V-9.4682e-05V3.99996V4.5V27.1175Z" fill="white"/>
<path d="M0.000282288 17.3334V14.6667L21.9256 14.708L16.1616 8.94271L18.0496 7.05737L24.1643 13.172C24.9142 13.9222 25.3354 14.9394 25.3354 16C25.3354 17.0607 24.9142 18.0779 24.1643 18.828L18.0496 24.9427L16.1643 23.0574L21.8483 17.3734L0.000282288 17.3334Z" fill="white"/>
</g>
<defs>
<clipPath id="clip0_88_3442">
<rect width="32" height="32" fill="white" transform="matrix(-1 0 0 1 32 0)"/>
</clipPath>
</defs>
</svg>
