<svg width="32" height="32" viewBox="0 0 32 32" fill="none" xmlns="http://www.w3.org/2000/svg">
<g clip-path="url(#clip0_88_3446)">
<path d="M29.3334 4.00003V28V31.9486C30.3943 31.9486 31.2499 32.7501 32 32C32.7501 31.2499 32.0001 29.0609 32.0001 28V4.00003C32.0001 2.93916 32.7502 0.750282 32.0001 0.000136018C31.2499 -0.75001 30.3943 0.000174761 29.3334 0.000174761V4.00003Z" fill="white"/>
<path d="M1.16952 13.172L7.28418 7.05737L9.16951 8.94271L3.48418 14.628L25.3335 14.6667V17.3334L3.40951 17.2947L9.17217 23.0574L7.28684 24.9427L1.17218 18.828C0.421944 18.0783 0.000204086 17.0613 -0.000295639 16.0006C-0.000795364 14.9399 0.419985 13.9225 1.16952 13.172Z" fill="white"/>
</g>
<defs>
<clipPath id="clip0_88_3446">
<rect width="32" height="32" fill="white" transform="matrix(-1 0 0 1 32 0)"/>
</clipPath>
</defs>
</svg>
