<svg id="Layer_1" data-name="Layer 1" xmlns="http://www.w3.org/2000/svg" xmlns:xlink="http://www.w3.org/1999/xlink" viewBox="0 0 1883.2 651.46"><defs><style>.cls-1{fill:#c4ab61;}.cls-2{fill:url(#linear-gradient);}.cls-3{fill:url(#linear-gradient-2);}.cls-4{fill:url(#linear-gradient-3);}.cls-5{fill:url(#linear-gradient-4);}</style><linearGradient id="linear-gradient" x1="259.37" y1="660.12" x2="763.41" y2="112.91" gradientUnits="userSpaceOnUse"><stop offset="0" stop-color="#c4ab61"/><stop offset="0.17" stop-color="#c5ad64" stop-opacity="0.98"/><stop offset="0.33" stop-color="#c9b36f" stop-opacity="0.92"/><stop offset="0.48" stop-color="#d0bc81" stop-opacity="0.82"/><stop offset="0.63" stop-color="#d9c99a" stop-opacity="0.68"/><stop offset="0.77" stop-color="#e6dbbb" stop-opacity="0.51"/><stop offset="0.91" stop-color="#f4f0e2" stop-opacity="0.29"/><stop offset="1" stop-color="#fff" stop-opacity="0.13"/></linearGradient><linearGradient id="linear-gradient-2" x1="329.73" y1="696.85" x2="833.78" y2="149.64" gradientUnits="userSpaceOnUse"><stop offset="0" stop-color="#c4ab61"/><stop offset="0.22" stop-color="#c5ac64" stop-opacity="0.98"/><stop offset="0.38" stop-color="#c8b16d" stop-opacity="0.94"/><stop offset="0.52" stop-color="#ceb97c" stop-opacity="0.85"/><stop offset="0.64" stop-color="#d6c591" stop-opacity="0.74"/><stop offset="0.76" stop-color="#e0d3ad" stop-opacity="0.58"/><stop offset="0.87" stop-color="#ede5ce" stop-opacity="0.4"/><stop offset="0.98" stop-color="#fcfaf6" stop-opacity="0.18"/><stop offset="1" stop-color="#fff" stop-opacity="0.13"/></linearGradient><linearGradient id="linear-gradient-3" x1="1387.98" y1="744.51" x2="2017.25" y2="470.07" xlink:href="#linear-gradient-2"/><linearGradient id="linear-gradient-4" x1="1336.48" y1="629.59" x2="1965.75" y2="355.16" xlink:href="#linear-gradient"/></defs><g id="LOGO_V7"><path class="cls-1" d="M173.06,843.31a33.22,33.22,0,0,1-31.48,22.15H18.88L173.31,438.74a33.24,33.24,0,0,1,31.49-22.15H327.49Z" transform="translate(-18.88 -214)"/><path class="cls-2" d="M370.13,742a33.2,33.2,0,0,1-31.48,22.15H216L370.38,337.45a33.23,33.23,0,0,1,31.49-22.15H524.56Z" transform="translate(-18.88 -214)"/><path class="cls-3" d="M567.64,640.72a33.24,33.24,0,0,1-31.49,22.15H413.46L567.89,236.15A33.22,33.22,0,0,1,599.37,214h122.7Z" transform="translate(-18.88 -214)"/></g><g id="EOVO_V7"><path class="cls-1" d="M1041.14,476.64l-21.5,59.52H841.07l-10.75,30.72H978.93l-19.58,49.54H810.73l-12.67,38.4H976.24l-21.5,59.52H687.08l86.4-237.7Z" transform="translate(-18.88 -214)"/><path class="cls-4" d="M1829.89,675.17c-8.83,23.81-30.33,39.17-55.68,39.17h-217l72.2-198.53c8.83-23.81,30.34-39.17,55.68-39.17h217Zm-81.79-20.35,43.39-118.66h-80.26l-43.39,118.66Z" transform="translate(-18.88 -214)"/><path class="cls-5" d="M1368.46,476.64h89L1455.71,607l81.77-129.36h89l-167.75,237.6h-89Z" transform="translate(-18.88 -214)"/><path class="cls-1" d="M1270.09,675.17c-8.83,23.81-30.33,39.17-55.68,39.17h-217l72.2-198.53c8.83-23.81,30.34-39.17,55.68-39.17h217Zm-81.79-20.35,43.39-118.66h-80.26L1108,654.82Z" transform="translate(-18.88 -214)"/></g></svg>