<svg width="32" height="32" viewBox="0 0 32 32" fill="none" xmlns="http://www.w3.org/2000/svg">
<path d="M31.6665 4V14.6667H16.9998V0H27.6665C28.7274 0 29.7448 0.421427 30.4949 1.17157C31.2451 1.92172 31.6665 2.93913 31.6665 4V4Z" fill="#222730"/>
<path d="M0 4.09091V15H14V0H3.81818C2.80554 0 1.83437 0.431005 1.11832 1.1982C0.402272 1.96539 0 3.00593 0 4.09091H0Z" fill="#222730"/>
<path d="M0 26.2727C0 27.7917 0.402272 29.2485 1.11832 30.3225C1.83437 31.3966 2.80554 32 3.81818 32H14V11H0C0 11 0 20.3084 0 26.2727Z" fill="#222730"/>
<path d="M17 17V32H27.9091C28.9941 32 30.0346 31.569 30.8018 30.8018C31.569 30.0346 32 28.9941 32 27.9091V17H17Z" fill="#222730"/>
</svg>
