<svg width="32" height="32" viewBox="0 0 32 32" fill="none" xmlns="http://www.w3.org/2000/svg">
<g clip-path="url(#clip0_88_3519)">
<path d="M32.0002 14.6667H17.3335V0H28.0002C29.061 0 30.0785 0.421427 30.8286 1.17157C31.5788 1.92172 32.0002 2.93913 32.0002 4V14.6667ZM20.0002 12H29.3335V4C29.3335 3.64638 29.193 3.30724 28.943 3.05719C28.6929 2.80714 28.3538 2.66667 28.0002 2.66667H20.0002V12Z" fill="#222730"/>
<path d="M28.0002 31.9999H17.3335V17.3333H32.0002V27.9999C32.0002 29.0608 31.5788 30.0782 30.8286 30.8283C30.0785 31.5785 29.061 31.9999 28.0002 31.9999ZM20.0002 29.3333H28.0002C28.3538 29.3333 28.6929 29.1928 28.943 28.9427C29.193 28.6927 29.3335 28.3535 29.3335 27.9999V19.9999H20.0002V29.3333Z" fill="#222730"/>
<path d="M1.5 4C1.5 2.61929 2.61929 1.5 4 1.5H13.5V30.5H4C2.61929 30.5 1.5 29.3807 1.5 28V4Z" stroke="#222730" stroke-width="3"/>
</g>
<defs>
<clipPath id="clip0_88_3519">
<rect width="32" height="32" fill="white"/>
</clipPath>
</defs>
</svg>
