<svg width="32" height="32" viewBox="0 0 32 32" fill="none" xmlns="http://www.w3.org/2000/svg">
<path d="M4 29.3013C3.64638 29.3013 3.30724 29.1609 3.05719 28.9108C2.80714 28.6608 2.66667 28.3216 2.66667 27.968V0H0V27.968C0 29.0289 0.421427 30.0463 1.17157 30.7964C1.92172 31.5466 2.93913 31.968 4 31.968H32V29.3013H4Z" fill="#222730"/>
<path d="M9.33366 16H6.66699V25.3333H9.33366V16Z" fill="#222730"/>
<path d="M15.9997 13.3333H13.333V25.3333H15.9997V13.3333Z" fill="#222730"/>
<path d="M22.6667 17.3333H20V25.3333H22.6667V17.3333Z" fill="#222730"/>
<path d="M29.3337 12H26.667V25.3333H29.3337V12Z" fill="#222730"/>
<path d="M14.667 5.88529L21.3336 12.552L31.6096 2.27596L29.7243 0.390625L21.3336 8.78129L14.667 2.11463L7.05762 9.72396L8.94295 11.6093L14.667 5.88529Z" fill="#222730"/>
</svg>
