<svg width="15" height="16" viewBox="0 0 15 16" fill="none" xmlns="http://www.w3.org/2000/svg">
<g clip-path="url(#clip0_1122_16289)">
<path d="M5.05578 12.259V14.6014H9.94466V12.36C9.93269 11.8415 10.0318 11.3264 10.2354 10.849C10.4389 10.3716 10.7423 9.94277 11.1253 9.59114C11.9613 8.86185 12.5556 7.89755 12.8299 6.82535C13.1042 5.75316 13.0457 4.62339 12.662 3.58496C12.2784 2.54653 11.5876 1.64818 10.6807 1.00831C9.77389 0.368454 8.69353 0.0171159 7.58205 0.000609512C6.47058 -0.0158969 5.38016 0.303203 4.45453 0.91585C3.5289 1.5285 2.8115 2.40593 2.3969 3.43251C1.98229 4.45909 1.88993 5.58661 2.13199 6.66648C2.37406 7.74635 2.93919 8.72786 3.75289 9.48165C4.15146 9.82954 4.47307 10.256 4.69735 10.7341C4.92163 11.2122 5.04368 11.7315 5.05578 12.259V12.259ZM8.72244 13.3849H6.278V12.259C6.278 12.2286 6.27372 12.1982 6.27311 12.1683H8.73222C8.73222 12.2322 8.72244 12.2955 8.72244 12.36V13.3849ZM3.25911 4.91482C3.34996 4.23246 3.60566 3.58219 4.0043 3.01974C4.40295 2.45728 4.93265 1.99941 5.54802 1.68535C6.1634 1.37129 6.84609 1.21041 7.53762 1.2165C8.22914 1.22258 8.90888 1.39544 9.51858 1.72028C10.1283 2.04511 10.6498 2.51223 11.0384 3.08161C11.427 3.65099 11.6711 4.30565 11.7498 4.98951C11.8285 5.67336 11.7395 6.36602 11.4903 7.00812C11.2412 7.65023 10.8394 8.22264 10.3193 8.67631C9.63911 9.28247 9.152 10.0735 8.918 10.9518H8.11133V6.58207C8.46755 6.45671 8.77616 6.22488 8.99494 5.91827C9.21372 5.61166 9.33199 5.24526 9.33355 4.8692H8.11133C8.11133 5.03052 8.04695 5.18523 7.93234 5.29931C7.81774 5.41338 7.6623 5.47746 7.50022 5.47746C7.33814 5.47746 7.18271 5.41338 7.0681 5.29931C6.95349 5.18523 6.88911 5.03052 6.88911 4.8692H5.66689C5.66845 5.24526 5.78672 5.61166 6.0055 5.91827C6.22428 6.22488 6.53289 6.45671 6.88911 6.58207V10.9518H6.08122C5.8056 10.045 5.28868 9.22934 4.58522 8.59116C4.08383 8.1294 3.70155 7.55423 3.47072 6.91432C3.23989 6.2744 3.16731 5.58856 3.25911 4.91482V4.91482Z" fill="#222730"/>
</g>
<path d="M5.9878 16.0001C5.0713 16.0001 5 15.105 5 15.105L7.25 15.105V16.0001C7.25 16.0001 6.90429 16.0001 5.9878 16.0001Z" fill="#222730"/>
<path d="M8.75 16.0001C9.6665 16.0001 9.88746 15.105 9.88746 15.105H7.25V16.0001C7.25 16.0001 7.8335 16.0001 8.75 16.0001Z" fill="#222730"/>
<defs>
<clipPath id="clip0_1122_16289">
<rect width="15" height="14.6014" fill="white"/>
</clipPath>
</defs>
</svg>
