<svg width="32" height="33" viewBox="0 0 32 33" fill="none" xmlns="http://www.w3.org/2000/svg">
<g clip-path="url(#clip0_126_578)">
<path d="M29.3334 4.40652V28.4065V32.3551C30.3943 32.3551 31.2499 33.1566 32 32.4065C32.7501 31.6563 32.0001 29.4674 32.0001 28.4065V4.40652C32.0001 3.34566 32.7502 1.15678 32.0001 0.40663C31.2499 -0.343515 30.3943 0.406669 29.3334 0.406669V4.40652Z" fill="#222730"/>
<path d="M1.16952 13.5785L7.28418 7.46387L9.16951 9.3492L3.48418 15.0345L25.3335 15.0732V17.7399L3.40951 17.7012L9.17217 23.4639L7.28684 25.3492L1.17218 19.2345C0.421944 18.4848 0.000204086 17.4677 -0.000295639 16.4071C-0.000795364 15.3464 0.419985 14.329 1.16952 13.5785Z" fill="#222730"/>
</g>
<defs>
<clipPath id="clip0_126_578">
<rect width="32" height="32" fill="white" transform="matrix(-1 0 0 1 32 0.406494)"/>
</clipPath>
</defs>
</svg>
